<?xml version="1.0" encoding="UTF-8" standalone="no"?>
<!DOCTYPE svg PUBLIC "-//W3C//DTD SVG 1.1//EN" "http://www.w3.org/Graphics/SVG/1.1/DTD/svg11.dtd">
<svg width="100%" height="100%" viewBox="0 0 149 148" version="1.1" xmlns="http://www.w3.org/2000/svg" xmlns:xlink="http://www.w3.org/1999/xlink" xml:space="preserve" xmlns:serif="http://www.serif.com/" style="fill-rule:evenodd;clip-rule:evenodd;stroke-linejoin:round;stroke-miterlimit:1.41421;">
    <g id="ArtBoard1" transform="matrix(0.920931,0,0,0.991775,-7.97373,-11.9716)">
        <rect x="8.658" y="12.071" width="161.304" height="148.433" style="fill:none;"/>
        <g transform="matrix(1.08586,0,0,1.00829,-462.42,-307.661)">
            <path d="M516.233,319.69C525.393,319.69 533.922,321.151 541.821,324.071C549.719,326.992 556.556,331.372 562.331,337.213C568.105,343.054 572.619,350.356 575.871,359.117C579.124,367.879 580.75,378.167 580.75,389.982C580.75,400.336 579.422,409.894 576.767,418.656C574.112,427.417 570.097,434.984 564.72,441.356C559.344,447.728 552.64,452.739 544.608,456.39C536.577,460.041 527.119,461.866 516.233,461.866L487.162,461.866L487.162,435.581L514.043,435.581C518.557,435.581 522.937,434.851 527.185,433.391C531.433,431.931 535.216,429.508 538.535,426.123C541.854,422.738 544.509,418.324 546.5,412.881C548.491,407.438 549.487,400.801 549.487,392.969C549.487,385.8 548.79,379.328 547.396,373.554C546.002,367.779 543.712,362.834 540.526,358.719C537.34,354.604 533.126,351.451 527.882,349.26C522.638,347.07 516.167,345.975 508.467,345.975L487.162,345.975L487.162,319.69L516.233,319.69Z" style="fill:rgb(235,107,86);fill-rule:nonzero;"/>
            <g transform="matrix(1,0,0,1,4.95416,-2.03464)">
                <rect x="457.553" y="329.327" width="18.739" height="18.739" style="fill:rgb(26,188,156);"/>
            </g>
            <g transform="matrix(1,0,0,1,4.95416,106.323)">
                <rect x="457.553" y="329.327" width="18.739" height="18.739" style="fill:rgb(61,142,185);"/>
            </g>
            <g transform="matrix(1,0,0,1,-6.66706,7.52496)">
                <rect x="457.553" y="329.327" width="18.739" height="18.739" style="fill:rgb(61,142,185);"/>
            </g>
            <g transform="matrix(1.27848,0,0,1.27848,-127.368,-22.727)">
                <rect x="457.553" y="329.327" width="18.739" height="18.739" style="fill:rgb(247,218,100);"/>
            </g>
            <g transform="matrix(1,0,0,1,-6.71779,45.9181)">
                <rect x="457.553" y="329.327" width="18.739" height="18.739" style="fill:rgb(97,189,109);"/>
            </g>
            <g transform="matrix(0.617036,0,0,0.617036,187.294,160.533)">
                <rect x="457.553" y="329.327" width="18.739" height="18.739" style="fill:rgb(235,107,86);"/>
            </g>
            <g transform="matrix(0.617036,0,0,0.617036,154.035,197.53)">
                <rect x="457.553" y="329.327" width="18.739" height="18.739" style="fill:rgb(61,142,185);"/>
            </g>
            <g transform="matrix(0.617036,0,0,0.617036,173.81,246.476)">
                <rect x="457.553" y="329.327" width="18.739" height="18.739" style="fill:rgb(97,189,109);"/>
            </g>
            <g transform="matrix(0.617036,0,0,0.617036,156.869,152.238)">
                <rect x="457.553" y="329.327" width="18.739" height="18.739" style="fill:rgb(247,218,100);"/>
            </g>
            <g transform="matrix(1,0,0,1,-9.65794,82.9832)">
                <rect x="457.553" y="329.327" width="18.739" height="18.739" style="fill:rgb(26,188,156);"/>
            </g>
            <g transform="matrix(1,0,0,1,-22.4872,94.853)">
                <rect x="457.553" y="329.327" width="18.739" height="18.739" style="fill:rgb(235,107,86);"/>
            </g>
        </g>
    </g>
</svg>
